0
SECTION
2
HEADER
9
$ACADVER
1
AC1009
0
ENDSEC
0
SECTION
2
TABLES
0
TABLE
2
LAYER
70
1
0
LAYER
2
POLIGONO_PERFURACAO
70
0
62
7
6
CONTINUOUS
0
ENDTAB
0
ENDSEC
0
SECTION
2
ENTITIES
0
LINE
8
POLIGONO_PERFURACAO
10
552234.415962
20
9359538.444104
30
0.000000
11
552230.692990
21
9359513.725327
31
0.000000
0
LINE
8
POLIGONO_PERFURACAO
10
552230.692990
20
9359513.725327
30
0.000000
11
552231.233976
21
9359495.611901
31
0.000000
0
LINE
8
POLIGONO_PERFURACAO
10
552231.233976
20
9359495.611901
30
0.000000
11
552232.544903
21
9359481.221803
31
0.000000
0
LINE
8
POLIGONO_PERFURACAO
10
552232.544903
20
9359481.221803
30
0.000000
11
552231.307246
21
9359467.807593
31
0.000000
0
LINE
8
POLIGONO_PERFURACAO
10
552231.307246
20
9359467.807593
30
0.000000
11
552226.429327
21
9359458.932523
31
0.000000
0
LINE
8
POLIGONO_PERFURACAO
10
552226.429327
20
9359458.932523
30
0.000000
11
552207.740421
21
9359450.167706
31
0.000000
0
LINE
8
POLIGONO_PERFURACAO
10
552207.740421
20
9359450.167706
30
0.000000
11
552193.087106
21
9359433.657189
31
0.000000
0
LINE
8
POLIGONO_PERFURACAO
10
552193.087106
20
9359433.657189
30
0.000000
11
552173.518922
21
9359418.289652
31
0.000000
0
LINE
8
POLIGONO_PERFURACAO
10
552173.518922
20
9359418.289652
30
0.000000
11
552161.310672
21
9359410.717918
31
0.000000
0
LINE
8
POLIGONO_PERFURACAO
10
552161.310672
20
9359410.717918
30
0.000000
11
552153.001844
21
9359399.859099
31
0.000000
0
LINE
8
POLIGONO_PERFURACAO
10
552153.001844
20
9359399.859099
30
0.000000
11
552140.944070
21
9359388.425325
31
0.000000
0
LINE
8
POLIGONO_PERFURACAO
10
552140.944070
20
9359388.425325
30
0.000000
11
552134.456927
21
9359379.491659
31
0.000000
0
LINE
8
POLIGONO_PERFURACAO
10
552134.456927
20
9359379.491659
30
0.000000
11
552125.754187
21
9359387.942443
31
0.000000
0
LINE
8
POLIGONO_PERFURACAO
10
552125.754187
20
9359387.942443
30
0.000000
11
552118.499089
21
9359388.932308
31
0.000000
0
LINE
8
POLIGONO_PERFURACAO
10
552118.499089
20
9359388.932308
30
0.000000
11
552109.531242
21
9359391.604678
31
0.000000
0
LINE
8
POLIGONO_PERFURACAO
10
552109.531242
20
9359391.604678
30
0.000000
11
552090.131029
21
9359388.755329
31
0.000000
0
LINE
8
POLIGONO_PERFURACAO
10
552090.131029
20
9359388.755329
30
0.000000
11
552057.802762
21
9359381.465164
31
0.000000
0
LINE
8
POLIGONO_PERFURACAO
10
552057.802762
20
9359381.465164
30
0.000000
11
552034.235738
21
9359370.163845
31
0.000000
0
LINE
8
POLIGONO_PERFURACAO
10
552034.235738
20
9359370.163845
30
0.000000
11
552023.623129
21
9359365.758550
31
0.000000
0
LINE
8
POLIGONO_PERFURACAO
10
552023.623129
20
9359365.758550
30
0.000000
11
552022.544672
21
9359350.966331
31
0.000000
0
LINE
8
POLIGONO_PERFURACAO
10
552022.544672
20
9359350.966331
30
0.000000
11
552031.914812
21
9359334.377000
31
0.000000
0
LINE
8
POLIGONO_PERFURACAO
10
552031.914812
20
9359334.377000
30
0.000000
11
552033.682880
21
9359316.551916
31
0.000000
0
LINE
8
POLIGONO_PERFURACAO
10
552033.682880
20
9359316.551916
30
0.000000
11
552066.356798
21
9359312.634771
31
0.000000
0
LINE
8
POLIGONO_PERFURACAO
10
552066.356798
20
9359312.634771
30
0.000000
11
552116.799741
21
9359308.814080
31
0.000000
0
LINE
8
POLIGONO_PERFURACAO
10
552116.799741
20
9359308.814080
30
0.000000
11
552145.573020
21
9359306.642206
31
0.000000
0
LINE
8
POLIGONO_PERFURACAO
10
552145.573020
20
9359306.642206
30
0.000000
11
552187.850252
21
9359302.336937
31
0.000000
0
LINE
8
POLIGONO_PERFURACAO
10
552187.850252
20
9359302.336937
30
0.000000
11
552209.026305
21
9359298.997137
31
0.000000
0
LINE
8
POLIGONO_PERFURACAO
10
552209.026305
20
9359298.997137
30
0.000000
11
552232.555234
21
9359295.130386
31
0.000000
0
LINE
8
POLIGONO_PERFURACAO
10
552232.555234
20
9359295.130386
30
0.000000
11
552245.703325
21
9359296.955346
31
0.000000
0
LINE
8
POLIGONO_PERFURACAO
10
552245.703325
20
9359296.955346
30
0.000000
11
552266.968992
21
9359318.497335
31
0.000000
0
LINE
8
POLIGONO_PERFURACAO
10
552266.968992
20
9359318.497335
30
0.000000
11
552280.167061
21
9359344.313687
31
0.000000
0
LINE
8
POLIGONO_PERFURACAO
10
552280.167061
20
9359344.313687
30
0.000000
11
552296.194734
21
9359371.376479
31
0.000000
0
LINE
8
POLIGONO_PERFURACAO
10
552296.194734
20
9359371.376479
30
0.000000
11
552302.916951
21
9359394.677044
31
0.000000
0
LINE
8
POLIGONO_PERFURACAO
10
552302.916951
20
9359394.677044
30
0.000000
11
552309.720733
21
9359410.262725
31
0.000000
0
LINE
8
POLIGONO_PERFURACAO
10
552309.720733
20
9359410.262725
30
0.000000
11
552313.021910
21
9359429.550791
31
0.000000
0
LINE
8
POLIGONO_PERFURACAO
10
552313.021910
20
9359429.550791
30
0.000000
11
552310.162702
21
9359447.258141
31
0.000000
0
LINE
8
POLIGONO_PERFURACAO
10
552310.162702
20
9359447.258141
30
0.000000
11
552313.313059
21
9359482.106306
31
0.000000
0
LINE
8
POLIGONO_PERFURACAO
10
552313.313059
20
9359482.106306
30
0.000000
11
552314.859172
21
9359498.399042
31
0.000000
0
LINE
8
POLIGONO_PERFURACAO
10
552314.859172
20
9359498.399042
30
0.000000
11
552311.876320
21
9359516.643348
31
0.000000
0
LINE
8
POLIGONO_PERFURACAO
10
552311.876320
20
9359516.643348
30
0.000000
11
552288.158000
21
9359521.207844
31
0.000000
0
LINE
8
POLIGONO_PERFURACAO
10
552288.158000
20
9359521.207844
30
0.000000
11
552271.798776
21
9359523.006964
31
0.000000
0
LINE
8
POLIGONO_PERFURACAO
10
552271.798776
20
9359523.006964
30
0.000000
11
552253.452271
21
9359534.862918
31
0.000000
0
LINE
8
POLIGONO_PERFURACAO
10
552253.452271
20
9359534.862918
30
0.000000
11
552234.415962
21
9359538.444104
31
0.000000
0
ENDSEC
0
EOF